<svg data-v-423bf9ae="" xmlns="http://www.w3.org/2000/svg" viewBox="0 0 2763 2668" class="iconLeft"><!----><!----><!----><g data-v-423bf9ae="" id="0c573436-409e-4299-8518-5aee45be019b" fill="#19CEDA" transform="matrix(5.714285714285714,0,0,5.714285714285714,2685.7777639627457,1303.888916015625)"><path d="M4.40 0.01L0.35 0.01L0.35 1.25L1.11 1.25L1.11 10.50L2.38 10.50L2.38 7.06L4.41 7.06L6.02 5.36L6.02 1.61ZM0.88 0.59L4.17 0.59L5.45 1.85L5.45 5.14L4.17 6.48L1.81 6.48L1.81 9.98L1.68 9.98L1.68 1.29L1.81 1.29L1.81 6.36L4.12 6.36L5.31 5.10L5.31 1.90L4.12 0.71L0.88 0.71ZM2.38 5.78L2.38 1.29L3.88 1.29L4.73 2.14L4.73 4.86L3.86 5.78ZM10.99 6.61L13.40 0L12.05 0L10.36 4.79L8.68 0L6.94 0L6.94 1.19L7.76 1.19L9.72 6.61L9.72 10.50L10.99 10.50ZM10.42 5.61L10.42 9.97L10.29 9.97L10.29 5.61L9.97 5.61L8.18 0.64L7.49 0.64L7.49 0.52L8.27 0.52L10.05 5.49L10.65 5.49L12.46 0.53L12.60 0.53L10.75 5.61Z"></path></g><!----><g data-v-423bf9ae="" id="042f7406-1774-4b49-ae18-567e0cc453ce" transform="matrix(5.444444444444445,0,0,5.444444444444445,-59.77777777777783,-59.77777777777783)" stroke="none" fill="#19CEDA"><path d="M228.516 471.374c-.42 0-.842-.026-1.264-.08-.727-.093-1.452-.188-2.176-.286-5.472-.745-9.304-5.786-8.558-11.258a9.953 9.953 0 012.816-5.701C223.052 436.394 238.884 423 257.5 423c16.922 0 31.399 10.764 36.771 25.954 26.226-5.42 51.212-16.265 73.164-31.756a38.997 38.997 0 01-3.706-16.604c0-10.414 4.055-20.204 11.418-27.567 7.365-7.366 17.158-11.423 27.576-11.423a39.07 39.07 0 0115.473 3.202c14.765-22.395 24.811-47.691 29.403-74.042a38.936 38.936 0 01-24.6-36.264c0-15.894 9.69-29.885 23.74-35.884-5.224-26.225-15.884-51.285-31.192-73.332a39.16 39.16 0 01-14.956 2.986c-10.414 0-20.204-4.055-27.566-11.419-7.363-7.364-11.419-17.154-11.419-27.567 0-4.998.979-9.959 2.829-14.567-22.185-15.041-47.351-25.41-73.651-30.347C285.053 78.94 270.906 89 254.5 89c-16.409 0-30.557-10.062-36.286-24.636-23.372 4.359-45.5 12.868-65.896 25.352-4.711 2.882-10.866 1.401-13.75-3.309-2.883-4.71-1.401-10.866 3.309-13.75 25.302-15.486 53.022-25.425 82.393-29.541a9.995 9.995 0 0111.334 8.874C236.607 61.688 244.73 69 254.5 69s17.894-7.313 18.896-17.01a10.006 10.006 0 013.783-6.845 9.981 9.981 0 017.552-2.029c35.676 5 69.823 19.043 98.753 40.612a10 10 0 011.98 14.074c-2.523 3.316-3.857 7.287-3.857 11.483 0 5.071 1.976 9.839 5.563 13.426a18.856 18.856 0 0013.423 5.561c4.209 0 8.344-1.414 11.645-3.981a10.002 10.002 0 0114.091 1.828c21.88 28.684 36.302 62.621 41.705 98.141a10.004 10.004 0 01-8.57 11.417C450.078 236.923 443 245.016 443 254.5c0 9.718 7.271 17.835 16.913 18.883a10 10 0 018.839 11.207c-4.567 35.805-18.252 70.199-39.573 99.465a9.994 9.994 0 01-6.816 4.031 10.008 10.008 0 01-7.61-2.19 18.998 18.998 0 00-12.029-4.292 18.878 18.878 0 00-13.434 5.564 18.863 18.863 0 00-5.561 13.426c0 4.605 1.663 9.043 4.683 12.495a10.002 10.002 0 01-1.385 14.476c-28.824 22.427-63.066 37.242-99.024 42.844a9.998 9.998 0 01-11.527-9.382C275.97 450.919 267.635 443 257.5 443c-10.251 0-18.769 8.338-18.987 18.587a10.002 10.002 0 01-9.997 9.787zm-50.319-12.972a9.96 9.96 0 01-3.704-.716 215.854 215.854 0 01-48.149-26.81 9.997 9.997 0 01-1.263-14.983 18.903 18.903 0 005.311-13.178c0-5.071-1.975-9.84-5.561-13.427a18.857 18.857 0 00-13.419-5.564 18.895 18.895 0 00-13.434 5.55 10 10 0 01-15-.995C60.543 359.01 45.928 324.3 40.71 287.902a10.002 10.002 0 019.692-11.417C60.657 276.274 69 267.757 69 257.5c0-10.307-8.384-18.825-18.69-18.99a9.998 9.998 0 01-9.746-11.369c5.014-36.238 19.339-70.863 41.426-100.131a10.002 10.002 0 0114.646-1.432 18.944 18.944 0 0012.644 4.817c5.074 0 9.843-1.976 13.431-5.563a18.792 18.792 0 004.573-7.357c1.759-5.235 7.428-8.053 12.665-6.293 5.235 1.76 8.052 7.43 6.293 12.665-1.928 5.735-5.086 10.824-9.388 15.126-7.365 7.366-17.158 11.422-27.574 11.422a38.965 38.965 0 01-16.753-3.775c-15.153 22.215-25.6 47.406-30.596 73.771C77.589 225.478 89 240.272 89 257.5c0 17.129-11.332 31.895-26.891 37.044 5.13 26.37 15.723 51.536 31.021 73.704 5.563-2.956 11.802-4.523 18.283-4.523 10.408 0 20.196 4.057 27.563 11.423 7.363 7.365 11.418 17.155 11.418 27.568 0 6.222-1.457 12.24-4.206 17.649a195.517 195.517 0 0035.721 18.746c5.129 2.048 7.628 7.865 5.581 12.995a10.01 10.01 0 01-9.293 6.296z"></path><path d="M254.5 89c-20.053 0-36.729-15.026-38.79-34.952A39.04 39.04 0 01215.5 50c0-21.505 17.495-39 39-39s39 17.495 39 39c0 1.341-.07 2.702-.209 4.046C291.229 73.974 274.552 89 254.5 89zm0-58c-10.477 0-19 8.523-19 19 0 .658.035 1.325.104 1.983C236.607 61.688 244.73 69 254.5 69s17.894-7.313 18.896-17.01A19.58 19.58 0 00273.5 50c0-10.477-8.523-19-19-19zM257.5 501c-21.505 0-39-17.495-39-39 0-.247.006-.493.015-.738l.004-.121C218.966 440.119 236.454 423 257.5 423c20.803 0 37.912 16.265 38.95 37.029.033.651.05 1.31.05 1.971 0 21.505-17.495 39-39 39zm0-58c-10.251 0-18.769 8.338-18.987 18.587l-.014.464c0 10.426 8.524 18.949 19 18.949s19-8.523 19-19c0-.325-.009-.649-.024-.972C275.97 450.919 267.635 443 257.5 443zM400.592 148.27c-10.413 0-20.202-4.055-27.565-11.417-7.363-7.364-11.419-17.155-11.419-27.568 0-8.485 2.82-16.864 7.941-23.594a39.37 39.37 0 013.478-3.993c7.363-7.366 17.157-11.423 27.576-11.423 10.418 0 20.212 4.057 27.578 11.423 7.366 7.365 11.423 17.159 11.423 27.577 0 10.417-4.057 20.21-11.423 27.577a39.259 39.259 0 01-3.668 3.226c-6.791 5.282-15.287 8.192-23.921 8.192zm.011-57.996a18.87 18.87 0 00-13.433 5.564 19.49 19.49 0 00-1.706 1.963c-2.522 3.316-3.856 7.287-3.856 11.483a18.86 18.86 0 005.562 13.426 18.86 18.86 0 0013.423 5.56c4.209 0 8.344-1.414 11.645-3.981a18.875 18.875 0 007.367-15.014 18.88 18.88 0 00-5.564-13.435 18.884 18.884 0 00-13.438-5.566zM111.396 441.725c-10.417 0-20.21-4.057-27.577-11.423-7.366-7.363-11.423-17.157-11.423-27.576 0-10.418 4.057-20.212 11.423-27.578l.133-.131c7.35-7.283 17.075-11.292 27.401-11.292 10.445 0 20.254 4.057 27.621 11.423 7.363 7.364 11.418 17.154 11.418 27.567 0 10.144-3.874 19.751-10.908 27.054a18.62 18.62 0 01-.511.533c-7.365 7.366-17.159 11.423-27.577 11.423zM97.882 389.37a18.873 18.873 0 00-5.485 13.355 18.87 18.87 0 005.564 13.433 18.877 18.877 0 0013.436 5.566c5.056 0 9.811-1.961 13.395-5.524l.315-.333c3.4-3.53 5.287-8.21 5.287-13.152 0-5.071-1.975-9.839-5.561-13.426-3.588-3.588-8.375-5.564-13.478-5.564-5.04 0-9.789 1.971-13.375 5.55l-.098.095zM462 293.5c-1.391 0-2.82-.079-4.25-.234C437.94 291.113 423 274.447 423 254.5c0-19.471 14.543-36.086 33.828-38.65a39.356 39.356 0 015.172-.35c21.505 0 39 17.495 39 39s-17.495 39-39 39zm0-58c-.809 0-1.661.059-2.535.175C450.077 236.923 443 245.016 443 254.5c0 9.718 7.271 17.835 16.913 18.883.716.078 1.417.117 2.087.117 10.477 0 19-8.523 19-19s-8.523-19-19-19zM50 296.5c-21.505 0-39-17.495-39-39s17.495-39 39-39c.207 0 .414.005.62.012C71.787 218.851 89 236.34 89 257.5c0 21.06-17.129 38.547-38.184 38.982l-.079.003c-.245.008-.49.015-.737.015zm0-58c-10.477 0-19 8.523-19 19 0 10.463 8.5 18.978 18.957 19l.413-.013C60.657 276.274 69 267.757 69 257.5c0-10.307-8.384-18.825-18.69-18.99l-.364-.01H50zM109.279 150.395a38.922 38.922 0 01-25.971-9.904 40.207 40.207 0 01-1.602-1.508c-7.375-7.375-11.431-17.168-11.431-27.586 0-10.417 4.056-20.21 11.422-27.577 7.367-7.367 17.161-11.423 27.578-11.423 10.417 0 20.21 4.057 27.577 11.423a39.008 39.008 0 011.576 1.677 38.937 38.937 0 019.844 25.906c0 10.416-4.056 20.208-11.42 27.571-7.365 7.364-17.157 11.421-27.573 11.421zm-.004-57.999a18.881 18.881 0 00-13.436 5.565c-3.588 3.588-5.564 8.359-5.564 13.435a18.875 18.875 0 006.354 14.177 18.949 18.949 0 0012.649 4.821c5.074 0 9.843-1.976 13.431-5.563a18.864 18.864 0 005.563-13.429c0-4.662-1.7-9.141-4.786-12.611a18.88 18.88 0 00-14.211-6.395zM402.726 439.604c-10.418 0-20.212-4.057-27.578-11.423a38.684 38.684 0 01-1.79-1.926 38.971 38.971 0 01-9.628-25.662c0-10.413 4.055-20.203 11.418-27.566 7.366-7.366 17.16-11.423 27.576-11.423 9 0 17.779 3.137 24.719 8.833a38.798 38.798 0 012.864 2.596c7.36 7.357 11.418 17.151 11.418 27.57 0 10.418-4.057 20.212-11.423 27.578-7.364 7.365-17.157 11.423-27.576 11.423zm-.002-58a18.878 18.878 0 00-13.434 5.565 18.858 18.858 0 00-5.561 13.424c0 4.604 1.663 9.043 4.684 12.497.283.323.57.642.877.948 3.589 3.589 8.36 5.565 13.436 5.565s9.846-1.976 13.433-5.564c3.59-3.59 5.566-8.361 5.566-13.437s-1.976-9.846-5.564-13.433a19.016 19.016 0 00-13.437-5.565z"></path><circle cx="255.521" cy="190.255" r="9.255"></circle><circle cx="256.479" cy="321.745" r="9.255"></circle><circle cx="302.15" cy="209.172" r="9.255"></circle><circle cx="209.85" cy="302.827" r="9.255"></circle><circle cx="321.745" cy="255.521" r="9.255"></circle><circle cx="190.255" cy="256.479" r="9.255"></circle><g><circle cx="209.173" cy="209.85" r="9.256"></circle><circle cx="302.827" cy="302.15" r="9.255"></circle></g><g><circle cx="255.521" cy="190.255" r="9.255"></circle><circle cx="256.479" cy="321.745" r="9.255"></circle></g><g><circle cx="302.15" cy="209.172" r="9.255"></circle><circle cx="209.85" cy="302.827" r="9.255"></circle></g><g><circle cx="321.745" cy="255.521" r="9.255"></circle><circle cx="190.255" cy="256.479" r="9.255"></circle></g><g><circle cx="209.173" cy="209.85" r="9.256"></circle><circle cx="302.827" cy="302.15" r="9.255"></circle></g><g><path d="M312.81 367.995H196.19a10 10 0 01-8.595-4.888l-57.69-96.995c-2.823-4.747-1.264-10.884 3.483-13.707 4.747-2.824 10.883-1.265 13.707 3.483l54.783 92.107h105.158L359.572 257l-52.536-90.995h-31.515c-5.522 0-10-4.477-10-10s4.478-10 10-10h37.288a10 10 0 018.66 5L379.779 252a10.002 10.002 0 010 10l-58.31 100.995a9.997 9.997 0 01-8.659 5zm-87.288-201.99H196.19c-5.523 0-10-4.477-10-10s4.477-10 10-10h29.332c5.523 0 10 4.477 10 10s-4.477 10-10 10z"></path></g><g><path d="M138.512 271.002c-.546 0-1.1-.045-1.656-.138l-60-10c-5.448-.908-9.128-6.061-8.22-11.508.908-5.448 6.065-9.124 11.508-8.22l60 10c5.448.908 9.128 6.06 8.22 11.507-.815 4.892-5.052 8.359-9.852 8.359z"></path></g><g><path d="M428.5 271h-60c-5.522 0-10-4.478-10-10 0-5.523 4.478-10 10-10h60c5.522 0 10 4.477 10 10 0 5.522-4.478 10-10 10z"></path></g><g><path d="M258.5 441c-5.523 0-10-4.478-10-10v-70c0-5.522 4.477-10 10-10 5.522 0 10 4.478 10 10v70c0 5.522-4.478 10-10 10z"></path></g><g><path d="M258.5 161c-5.523 0-10-4.477-10-10V81c0-5.523 4.477-10 10-10 5.522 0 10 4.477 10 10v70c0 5.523-4.478 10-10 10z"></path></g><g><path d="M256.5 297c-23.159 0-42-19.29-42-43s18.841-43 42-43 42 19.29 42 43-18.841 43-42 43zm0-66c-12.131 0-22 10.318-22 23 0 12.683 9.869 23 22 23s22-10.317 22-23c0-12.682-9.869-23-22-23z"></path></g></g><!----></svg>